<?xml version="1.0" encoding="UTF-8" standalone="no"?>
<!DOCTYPE svg PUBLIC "-//W3C//DTD SVG 1.1//EN" "http://www.w3.org/Graphics/SVG/1.1/DTD/svg11.dtd">
<svg xmlns="http://www.w3.org/2000/svg" xmlns:xlink="http://www.w3.org/1999/xlink" version="1.1" width="1041.6666pt" height="1041.6666pt" viewBox="0 0 1041.6666 1041.6666">
<g enable-background="new">
<clipPath id="cp0">
<path transform="matrix(.6666666,0,0,.6666666,0,0)" d="M 0 0 L 1562.5 0 L 1562.5 1562.5 L 0 1562.5 Z " fill-rule="evenodd"/>
</clipPath>
<g clip-path="url(#cp0)">
<path transform="matrix(2.0833333,0,0,2.0833333,0,0)" d="M 0 0 L 500 0 L 500 500 L 0 500 Z " fill="#ffffff"/>
</g>
<clipPath id="cp1">
<path transform="matrix(.6666666,0,0,.6666666,0,0)" d="M 0 0 L 1562.5 0 L 1562.5 1562.5 L 0 1562.5 Z " fill-rule="evenodd"/>
</clipPath>
<g clip-path="url(#cp1)">
<path transform="matrix(2.0833333,0,0,2.0833333,0,0)" d="M 0 0 L 500 0 L 500 500 L 0 500 Z " fill="#ffffff"/>
</g>
<clipPath id="cp2">
<path transform="matrix(.6666666,0,0,.6666666,0,0)" d="M 207.77178 243.22315 L 1354.6467 243.22315 L 1354.6467 1318.2232 L 207.77178 1318.2232 Z " fill-rule="evenodd"/>
</clipPath>
<g clip-path="url(#cp2)">
<path transform="matrix(1.6236299,0,0,1.6221517,138.52249,162.14876)" d="M 456.0039 154.85547 C 456.0039 262.8125 370.60548 421.53517 262.65235 421.53517 C 154.69532 421.53517 32.875 284.72657 32.875 176.76953 C 32.875 68.81641 156.8164 -.00390625 264.76954 -.00390625 C 372.72657 -.00390625 456.0039 46.902345 456.0039 154.85547 " fill="#f6836b"/>
</g>
<clipPath id="cp3">
<path transform="matrix(.6666666,0,0,.6666666,0,0)" d="M 297.8952 243.22315 L 1318.3467 243.22315 L 1318.3467 1318.13 L 297.8952 1318.13 Z " fill-rule="evenodd"/>
</clipPath>
<g clip-path="url(#cp3)">
<path transform="matrix(1.6236299,0,0,1.6221517,138.52249,162.14876)" d="M 217.45313 253.15625 L 204.20703 253.15625 L 204.20703 254.15625 L 217.45313 254.15625 L 217.45313 253.15625 Z M 217.45313 249.85938 L 204.20703 249.85938 L 204.20703 250.85938 L 217.45313 250.85938 L 217.45313 249.85938 Z M 217.45313 246.5664 L 204.20703 246.5664 L 204.20703 247.5664 L 217.45313 247.5664 L 217.45313 246.5664 Z M 352.98439 340.3164 C 351.01173 335.95314 348.97267 331.4414 346.72267 327.1328 C 340.67579 315.53517 332.9336 304.95704 323.71095 295.6836 C 322.1875 294.15626 320.60548 292.64064 319.0703 291.17579 C 315.07814 287.35548 310.95314 283.41017 307.6328 278.92189 C 302.3789 271.8164 300.09376 264.23048 301.1914 257.5547 C 302.39454 250.26953 307.4961 244.49219 311.5625 240.9336 C 315.0664 237.86719 318.92579 235.38672 322.9414 233.57422 C 322.8086 233.26953 322.67189 232.96485 322.53907 232.66016 C 318.4297 234.51172 314.48048 237.04688 310.90235 240.17969 C 306.71485 243.84766 301.45704 249.8125 300.20704 257.39064 C 299.0625 264.33595 301.41407 272.1914 306.82814 279.51564 C 310.19923 284.07423 314.35939 288.05079 318.3789 291.89845 C 319.90626 293.35939 321.48829 294.8711 323 296.39064 C 332.15235 305.58985 339.83595 316.08985 345.83595 327.59376 C 348.0703 331.8789 350.10548 336.3789 352.07423 340.73048 C 355.8789 349.14064 359.8125 357.84376 365.375 365.40626 C 366.23048 366.5703 367.17579 367.7422 368.19923 368.90235 C 368.4297 368.66017 368.66017 368.41798 368.89064 368.17189 C 367.91017 367.0586 367.0039 365.9336 366.1836 364.8164 C 360.6797 357.33204 356.76954 348.6836 352.98439 340.3164 Z M 374.01564 257.0703 C 372.4961 254.90625 371.08595 252.58594 369.72267 250.34375 C 366.8047 245.53907 363.78517 240.57032 359.5 236.78125 C 353.1289 231.14453 343.85157 228.34766 334.6836 229.30469 C 330.92189 229.69532 327.1289 230.70703 323.45704 232.26172 C 323.58985 232.5664 323.72657 232.8711 323.85939 233.17578 C 327.4375 231.66016 331.1289 230.67969 334.78907 230.29688 C 343.6797 229.3711 352.67189 232.07422 358.83595 237.52735 C 363.0078 241.21875 365.98829 246.1211 368.8672 250.85938 C 370.23829 253.11719 371.65626 255.45313 373.1953 257.64454 C 379.9922 267.33595 389.92579 275.46876 402.71485 281.82423 C 408.96485 284.9336 415.45314 287.39454 421.9453 289.48439 C 422.09376 289.1836 422.23829 288.8789 422.3828 288.57423 C 415.89064 286.48829 409.40235 284.03126 403.16017 280.9297 C 390.52345 274.64845 380.71485 266.6211 374.01564 257.0703 Z M 219.80469 222.3789 C 220.42578 220.6836 220.82813 218.8086 220.78516 216.82032 L 219.4414 215.16016 C 219.4414 215.15625 219.45313 215.15235 219.45313 215.15235 L 214.55078 209.09766 C 214.55078 209.09766 208.99219 209.6836 207.4961 210.4336 C 206 211.17969 198.85938 215.21094 198.85938 215.21094 L 194.16407 225.35157 C 193.57813 226.6211 194.11328 228.13282 195.3789 228.7461 C 196.01172 229.0586 196.71875 229.07422 197.34766 228.85547 C 197.36328 228.85157 197.3789 228.84375 197.39453 228.83985 C 197.53125 228.78516 197.66016 228.72657 197.78907 228.65235 C 197.8164 228.63672 197.84375 228.6211 197.8711 228.60547 C 197.98438 228.53125 198.09375 228.45313 198.1914 228.36328 C 198.22266 228.33594 198.2539 228.3125 198.28516 228.28516 C 198.40625 228.17188 198.51953 228.04297 198.61719 227.90235 C 198.61719 227.89844 198.6211 227.89844 198.6211 227.89453 L 202.6289 222.09766 L 217.875 222.09766 C 218.54688 222.09766 219.1914 222.19532 219.80469 222.3789 Z M 208.41016 232.19922 L 208.47266 232.11719 C 208.8789 231.53516 209.53125 231.16797 210.23828 231.125 L 213.21485 230.94532 C 213.80078 230.91016 214.34766 230.66016 214.7539 230.23828 C 215.03907 229.9414 215.40625 229.53907 215.8125 229.0586 L 197.00782 229.0586 L 196.78125 229.55078 L 196.39063 232.33985 C 196.1914 233.74219 197.28125 234.99219 198.69922 234.99219 L 199.875 234.99219 C 200.59375 234.99219 201.27344 234.66016 201.71485 234.09375 C 202.15625 233.52735 202.83594 233.19532 203.5586 233.19532 L 206.5039 233.19532 C 207.26172 233.19532 207.97657 232.82422 208.41016 232.19922 Z M 367.91798 192.25 C 367.5664 192.39063 367.21095 192.52735 366.85157 192.65235 C 367.3164 193.0586 367.78517 193.46485 368.2461 193.8711 C 368.46485 193.76953 368.72657 193.82813 368.8672 194.03125 C 368.96095 194.16407 368.96876 194.32422 368.92189 194.46875 C 372.96485 198.0625 376.875 201.78907 380.73829 205.48047 L 435.51173 257.76173 C 435.63673 257.42189 435.76564 257.08204 435.89064 256.7422 L 381.4297 204.75782 C 377.02735 200.55469 372.5664 196.30078 367.91798 192.25 Z M 367.0625 191.51563 C 362.14454 187.28125 357.0039 183.29297 351.48829 179.85938 C 351.3086 180.13672 351.1328 180.41407 350.9453 180.69922 C 356.2539 184.0039 361.21485 187.82813 365.96876 191.89453 C 366.33595 191.77344 366.70314 191.64844 367.0625 191.51563 Z M 241.64453 291.03517 L 188.83985 291.03517 C 200.96485 302.66017 211.21094 316.0039 219.32032 330.7422 C 220.72266 333.28907 222.09375 335.9336 223.42188 338.4961 C 228.41797 348.13673 233.58594 358.08204 241.64453 365.27735 L 241.64453 291.03517 Z M 241.64453 366.60548 C 233.0664 359.2422 227.71094 348.9375 222.53516 338.95314 C 221.21094 336.40235 219.83985 333.76173 218.44532 331.22267 C 210.21094 316.26173 199.73828 302.76564 187.34766 291.03517 L 180.01953 291.03517 L 180.01953 328.8125 C 185.1289 334.77345 189.16407 341.6953 191.72266 349.0586 C 192.51172 351.3203 193.1875 353.6836 193.84375 355.97267 C 195.64844 362.26564 197.51563 368.76954 201.79688 373.66407 C 206.01172 378.48439 211.80078 381.0547 217.9336 383.77735 C 222.13672 385.64454 226.48047 387.5703 230.22657 390.28517 C 235.39063 394.03126 239.38282 399.3828 241.64453 405.36329 L 241.64453 366.60548 Z M 229.23828 273.97267 L 233.42188 273.97267 L 233.83985 270.16017 L 234.65235 267.29298 L 234.97266 266.16017 L 234.21485 266.92189 L 231.17188 269.96095 L 229.23828 273.97267 Z M 162.95313 355.71485 C 162.82032 355.41017 162.67969 355.10939 162.54688 354.8047 C 161.78125 361.63673 161.9375 368.53907 162.95313 375.3125 L 162.95313 355.71485 Z M 335.42579 394.4922 C 335.83595 395.09376 336.26564 395.67189 336.6875 396.2578 C 336.41407 396.4453 336.14064 396.63673 335.86329 396.82423 C 335.4414 396.23829 335.01173 395.66017 334.60157 395.0586 C 327.09767 384.10157 321.78907 371.66407 316.66017 359.63673 C 315.1211 356.03517 313.53126 352.3086 311.90626 348.6836 C 305.4297 334.21095 296.90235 317.9414 282.8047 306.97657 C 278.58204 303.6953 273.875 300.92579 269.32423 298.2422 C 265.78126 296.15626 262.14845 293.9961 258.70704 291.59376 L 258.70704 376.8789 C 261.5039 378.79689 264.17579 380.90626 266.4414 383.45704 C 273.1172 390.95704 275.9414 402.01564 273.98829 413.03907 C 273.5078 415.76173 272.7422 418.47267 271.71876 421.15235 C 271.35157 421.1836 270.98439 421.21485 270.61329 421.2422 C 271.70314 418.47657 272.5078 415.67579 273.0078 412.8672 C 274.90235 402.14064 272.17189 391.39454 265.6953 384.1211 C 263.64845 381.8203 261.2422 379.875 258.70704 378.09767 L 258.70704 441.76173 L 241.64453 441.76173 L 241.64453 408.57814 C 239.7461 401.63673 235.46094 395.3125 229.64063 391.09767 C 225.97657 388.4414 221.6836 386.53517 217.52735 384.6914 C 211.5664 382.04689 205.40235 379.3086 201.04297 374.32423 C 196.61328 369.2578 194.71875 362.64454 192.88282 356.25 C 192.23047 353.97657 191.5586 351.6211 190.77735 349.38673 C 188.39063 342.5039 184.6914 336.01173 180.01953 330.35157 L 180.01953 378.15626 C 182.85938 380.83595 185.91407 383.28907 189.16407 385.44923 C 192.57032 387.71095 196.23047 389.70314 199.76953 391.6328 C 202.39453 393.0625 205.10547 394.53907 207.70703 396.1211 C 215.27344 400.72267 220.26953 405.35548 223.4375 410.69923 C 224.5625 412.59767 225.41016 414.58204 225.99219 416.59376 C 225.61719 416.4922 225.24219 416.38673 224.86719 416.28517 C 224.3125 414.5586 223.55078 412.84767 222.57813 411.20704 C 219.4961 406.01173 214.60547 401.48829 207.1875 396.97657 C 204.60938 395.40626 201.90625 393.9336 199.29297 392.51173 C 195.73438 390.5703 192.05078 388.5664 188.60938 386.28126 C 185.57422 384.26564 182.70313 381.9961 180.01953 379.52735 L 180.01953 441.76173 L 162.95313 441.76173 L 162.95313 380.8125 C 160.9375 371.63673 160.51172 362.1172 161.79688 352.76954 L 162.0586 350.86329 L 162.75782 352.65626 C 162.82032 352.8164 162.89063 352.97657 162.95313 353.13673 L 162.95313 316.67189 C 159.0039 315.0586 154.25782 314.2578 150 316.6172 C 143.86328 320.02735 142.2461 328.07814 141.47657 335.5039 C 140.32813 346.58985 139.42188 358.4453 140.57422 370.0586 C 140.60938 370.40626 140.66407 370.73829 140.70313 371.08204 C 140.32813 370.77735 139.95313 370.47657 139.58203 370.16798 C 139.58203 370.16407 139.57813 370.16017 139.57813 370.15626 C 138.41797 358.45704 139.32813 346.53907 140.48438 335.40235 C 141.28125 327.71876 142.97657 319.375 149.51563 315.7461 C 153.96485 313.27345 158.85547 314.0039 162.95313 315.60157 L 162.95313 291.03517 L 140.50782 291.03517 C 127.83594 302.1797 118.74609 316.26564 114.58203 331.5078 C 113.37109 335.9297 112.625 340.4297 112.28125 344.9297 C 111.97266 344.61329 111.66406 344.30079 111.359378 343.98048 C 111.734378 339.70704 112.46875 335.4414 113.61719 331.2422 C 117.74219 316.15626 126.62109 302.1836 138.9961 291.03517 L 72.05859 291.03517 C 71.890628 291.7461 71.71484 292.45314 71.546878 293.16407 C 71.296878 292.76954 71.03906 292.3789 70.79297 291.98439 C 70.86719 291.66798 70.94922 291.35157 71.02344 291.03517 L 37.90625 291.03517 L 37.90625 273.97267 L 75.328128 273.97267 C 76.03125 271.28907 76.734378 268.6211 77.4375 265.97657 C 83.41797 243.47657 89.60156 220.21485 91.13281 196.66797 C 93.76953 156.10157 82.35547 116.66016 68.41406 83.66797 C 68.65625 83.38281 68.90234 83.10156 69.14453 82.82031 C 83.22266 116.015628 94.79297 155.78907 92.13281 196.73438 C 90.59375 220.375 84.39844 243.6875 78.40625 266.23439 C 77.72266 268.79298 77.04297 271.3789 76.359378 273.97267 L 224.375 273.97267 C 224.41407 273.78517 224.45313 273.59767 224.4961 273.41017 C 224.50782 273.36329 224.51563 273.3164 224.52735 273.26954 C 224.5625 273.10939 224.59766 272.94923 224.63282 272.78517 C 224.66016 272.65626 224.6875 272.52735 224.71875 272.39845 C 224.7461 272.27345 224.77344 272.14845 224.80078 272.01954 C 224.85547 271.76564 224.91407 271.51173 224.96875 271.2578 C 224.97657 271.22267 224.98438 271.1836 224.99219 271.14845 C 225.04688 270.91407 225.09766 270.6836 225.14844 270.45314 C 225.16407 270.39454 225.17578 270.33595 225.1914 270.27735 C 225.23828 270.0625 225.28907 269.84767 225.33594 269.63673 C 225.34766 269.58595 225.35938 269.53517 225.3711 269.48439 C 225.42969 269.23048 225.48438 268.98439 225.54297 268.7461 C 225.55078 268.71876 225.55469 268.6914 225.5625 268.66407 C 225.60938 268.45704 225.65625 268.26173 225.70313 268.0703 C 225.71875 268.01173 225.73047 267.95314 225.7461 267.89454 C 225.78516 267.72657 225.82422 267.5664 225.86328 267.41407 C 225.875 267.3672 225.88672 267.3203 225.89844 267.27735 C 225.94532 267.08595 225.99219 266.90235 226.03516 266.73439 C 226.03907 266.72267 226.04297 266.71485 226.04688 266.69923 C 226.08594 266.55079 226.1211 266.41407 226.15625 266.29298 C 226.16797 266.2539 226.17969 266.22267 226.1875 266.1875 C 226.21485 266.09376 226.24219 266.0078 226.26563 265.9336 C 226.27344 265.90626 226.28125 265.875 226.29297 265.84767 C 226.32032 265.7578 226.35157 265.6797 226.3711 265.6289 C 226.375 265.6289 226.375 265.625 226.375 265.625 C 226.41016 265.54298 226.47266 265.4375 226.55078 265.3164 C 226.57813 265.27345 226.61328 265.22657 226.64453 265.1797 C 226.70703 265.08985 226.77344 264.9961 226.85157 264.89064 C 226.89453 264.82814 226.94532 264.76564 226.99219 264.69923 C 227.07422 264.59376 227.16407 264.48048 227.25782 264.35939 C 227.3125 264.28907 227.36719 264.22267 227.42578 264.14845 C 227.53516 264.01564 227.64844 263.875 227.76953 263.73048 C 227.82422 263.66407 227.8789 263.60157 227.9336 263.53517 C 228.08594 263.35157 228.2461 263.16017 228.41407 262.96876 C 228.4414 262.9336 228.46875 262.90235 228.4961 262.8711 C 229.1289 262.13673 229.83985 261.34767 230.53907 260.57814 C 230.54688 260.57423 230.55078 260.5664 230.5586 260.5586 C 230.57422 260.53907 230.59375 260.52345 230.60938 260.5039 C 231.22657 259.83204 231.82813 259.1875 232.3711 258.625 C 232.42969 258.5664 232.48828 258.5039 232.54688 258.4453 C 232.63282 258.35548 232.71485 258.26954 232.79688 258.1875 C 232.875 258.10548 232.94922 258.03126 233.02344 257.95314 C 233.08985 257.89064 233.15235 257.82423 233.21485 257.76564 C 233.22657 257.75 233.24219 257.73439 233.25782 257.71876 C 231.6875 253.16407 230.58985 248.46094 230.05469 243.69922 C 229.2539 236.64063 230.25 231.47266 233.10157 227.89844 C 235.94922 224.32422 240.32813 222.69532 244.5664 221.11719 C 245.98438 220.58985 247.45313 220.04688 248.82813 219.4375 C 259.26954 214.8164 266.58595 205.4414 273.66017 196.3789 C 280.2578 187.92188 287.08204 179.17969 296.5078 174.0625 C 309.46876 167.02735 326.97267 167.51563 343.33204 175.36328 C 345.84767 176.57032 348.27345 177.91016 350.63673 179.34375 C 350.46095 179.6211 350.28126 179.89844 350.09376 180.1875 C 347.76564 178.77344 345.375 177.45313 342.90235 176.26563 C 326.82814 168.55469 309.66407 168.0586 296.98439 174.9414 C 287.7422 179.95703 280.98439 188.61719 274.44923 196.99219 C 267.29689 206.15235 259.90235 215.6289 249.23438 220.35157 C 247.83203 220.97266 246.34766 221.52344 244.91407 222.0586 C 240.80469 223.58594 236.5586 225.16797 233.88282 228.52344 C 231.20703 231.8789 230.27735 236.80469 231.04688 243.58594 C 231.5625 248.1289 232.58594 252.625 234.05469 256.98048 C 236.07032 255.5664 246.4414 254.42578 246.4414 254.42578 L 250.14453 248.50782 L 251.58985 246.19922 L 268.70704 255.16016 C 268.70704 255.16016 266.86329 258.4961 264.78517 261.51564 C 264.78126 261.52345 264.77735 261.53126 264.77345 261.53517 C 264.5586 261.84767 264.34376 262.15235 264.1289 262.45314 C 264.1172 262.46876 264.10548 262.48048 264.09767 262.4961 C 263.88673 262.78517 263.67189 263.0703 263.46485 263.34376 C 263.44923 263.36329 263.4336 263.3828 263.41798 263.40235 C 263.21095 263.66798 263.0039 263.92579 262.80079 264.16798 C 262.78517 264.1875 262.76954 264.20704 262.7539 264.22657 C 262.55079 264.46485 262.35157 264.6914 262.15626 264.89845 C 262.14064 264.91407 262.125 264.9297 262.10939 264.9453 C 261.91407 265.14845 261.72267 265.33985 261.53907 265.5039 C 261.52735 265.51173 261.51564 265.51954 261.5039 265.53126 C 261.3164 265.6953 261.13673 265.83985 260.96485 265.95314 C 260.95704 265.96095 260.94923 265.96095 260.9414 265.96876 C 260.76954 266.08204 260.59767 266.17189 260.4414 266.22657 C 259.4414 266.57814 258 266.6914 256.58985 266.69923 C 254.23828 266.71485 251.97266 266.42579 251.97266 266.42579 L 248.95703 272.9922 C 248.92578 273.0625 248.8711 273.1211 248.83203 273.1875 C 248.78516 273.2578 248.75 273.33595 248.69532 273.39845 C 248.67969 273.41407 248.66016 273.42579 248.64453 273.4414 C 248.55078 273.53907 248.44922 273.6328 248.33594 273.70704 C 248.32032 273.71485 248.30469 273.71876 248.29297 273.72657 C 248.17188 273.80079 248.04297 273.86329 247.90625 273.90235 C 247.8789 273.91017 247.84766 273.91017 247.82032 273.91407 C 247.69532 273.9453 247.5664 273.97267 247.42969 273.97267 L 258.70704 273.97267 L 258.70704 290.3672 C 262.28517 292.91017 266.10548 295.1875 269.83204 297.3828 C 274.41017 300.07814 279.14454 302.8672 283.41798 306.1875 C 297.6914 317.28517 306.28907 333.6914 312.8203 348.27345 C 314.44923 351.90626 316.03907 355.63673 317.57814 359.2461 C 322.6914 371.22657 327.97657 383.6172 335.42579 394.4922 Z M 291.89845 415.51954 L 307.16407 415.51954 L 307.16407 400.5586 L 290.30079 404.76173 L 291.89845 415.51954 Z M 398.45704 415.51954 L 413.72267 415.51954 L 413.72267 400.5586 L 396.85548 404.76173 L 398.45704 415.51954 Z M 412.89845 86.89844 C 408.5078 73.41016 407.80079 58.742189 410.6328 44.82422 C 410.34767 44.570314 410.0625 44.316408 409.77345 44.066408 C 406.77345 58.320314 407.4453 73.37891 411.94923 87.20703 L 412.89845 86.89844 Z M 122.69922 148.28516 C 122.23047 160.00782 121.64844 174.58985 131.26172 182.84375 C 135.10547 186.14063 140.26172 187.85938 145.67188 187.85938 C 148.88672 187.85938 152.1914 187.2539 155.36328 186.01172 C 164.29688 182.51172 170.40235 175.07813 173.94922 169.45703 C 176.8125 164.91797 179.10157 159.96094 181.3125 155.16016 C 184.13672 149.03516 187.05469 142.70313 191.17969 137.28125 C 196.03907 130.89063 202.51953 125.82422 208.78516 120.92578 C 212.44922 118.05859 216.23828 115.09766 219.6875 111.88672 C 223.91407 107.953128 227.79688 103.46875 231.32032 98.5 C 232.89453 100.37891 234.9414 101.625 237.60547 101.99219 C 239.78907 102.296878 241.9375 102.15234 244.0039 101.65234 C 244.85547 101.84375 246.80469 102.34375 248.86719 103.33203 C 251.09375 104.39844 258.65626 124.39453 258.85157 123.796878 C 260.96095 117.30859 273.94923 101.28906 270.32814 95.43359 C 267.21876 90.39844 263.96095 84.46484 263.42579 79.25781 C 265.60548 78.41016 267.23829 76.74219 267.73439 74.77734 C 268.23829 72.78125 268.1836 70.55859 266.125 69.796878 C 269.01954 62.45703 270.69923 56.015626 262.94923 54.414064 C 258.71485 53.539064 255.4414 53.046876 250.58985 52.28125 C 254.21094 35.132814 255.20313 17.480469 255.8086 .164062 C 255.47266 .17578101 255.14063 .17968802 254.80469 .19140601 C 254.20313 17.464844 253.21094 35.058595 249.60157 52.121095 C 248.08985 51.882814 246.42969 51.617189 244.53907 51.304689 C 234.875 49.703126 226.0664 57.140626 226.0625 66.9375 C 226.0586 78.421878 226.0664 91.13281 230.6836 97.67578 C 227.15235 102.68359 223.2539 107.203128 219.00782 111.15234 C 215.58594 114.33594 211.8164 117.28516 208.16797 120.13672 C 201.85157 125.07422 195.32032 130.1836 190.38282 136.67578 C 186.19532 142.1836 183.25 148.57032 180.40235 154.74219 C 178.20703 159.51172 175.9336 164.4414 173.10157 168.92578 C 169.63672 174.41797 163.67969 181.67969 154.9961 185.07813 C 146.82422 188.28125 137.76563 187.10547 131.91407 182.08203 C 122.66406 174.14453 123.23828 159.82813 123.69922 148.32813 C 124.73828 122.28125 122.56641 101.52734 116.86328 83.015628 C 113.38281 71.72266 108.43359 61.3125 102.30859 52.222658 C 102.03906 52.421876 101.77344 52.621095 101.50391 52.820314 C 107.5625 61.820314 112.46094 72.125 115.90625 83.30859 C 121.578128 101.71094 123.734378 122.359378 122.69922 148.28516 Z M 453.76564 125.55078 C 453.70704 125.19922 453.64454 124.85547 453.58595 124.51172 C 447.3789 123.25391 442.30079 117.78906 440.59376 115.75391 C 432.15626 105.671878 427.48439 92.35156 427.77735 79.20703 C 427.8789 74.71094 428.57423 70.22266 429.78126 65.87109 C 429.53126 65.52734 429.28907 65.17578 429.03517 64.83594 C 427.66407 69.50391 426.88673 74.33984 426.77735 79.18359 C 426.48048 92.56641 431.23439 106.12891 439.82814 116.39453 C 441.6328 118.55078 447.0664 124.36719 453.76564 125.55078 Z M 435.89845 145.96875 C 421.63673 135.875 410.1914 121.390628 403.66407 105.18359 C 401.58985 100.02344 399.95314 94.58594 398.3672 89.328128 C 396.46095 82.97656 394.48048 76.41016 391.70704 70.25391 C 390.10548 66.69531 388.21095 63.21875 386.3789 59.85547 C 384.02735 55.535158 381.58985 51.066408 379.77735 46.42578 C 376.75 38.66797 375.44923 30.300782 375.85939 22.015625 C 375.53126 21.855469 375.20314 21.703125 374.875 21.550782 C 374.39454 30.109375 375.71485 38.76953 378.84767 46.785158 C 380.6836 51.48828 383.1328 55.984376 385.5039 60.335939 C 387.32423 63.683595 389.21095 67.14453 390.79689 70.66406 C 393.54298 76.76172 395.51173 83.296878 397.41017 89.61719 C 399 94.89453 400.64454 100.35156 402.73829 105.55859 C 409.33595 121.94141 420.90626 136.58203 435.3203 146.78516 C 441.67189 151.27735 448.65235 154.96485 455.98048 157.7461 C 455.98829 157.39063 455.98829 157.03516 455.9922 156.6836 C 448.8672 153.9414 442.08204 150.34375 435.89845 145.96875 Z M 415.21095 191.0039 C 413.08985 189.42578 410.96876 187.85157 408.8672 186.26563 C 391.15626 172.90235 371.8086 156.22657 362.57814 133.86328 C 360.92579 129.85938 359.5547 125.58594 358.22657 121.44922 C 355.01564 111.44141 351.6953 101.08984 344.1289 93.69531 C 339.66798 89.33594 334.0664 86.38281 328.65235 83.52344 C 325.4336 81.82422 322.10548 80.07031 319.0586 78.03906 C 305.90626 69.27734 296.23048 54.234376 291.8203 35.67578 C 289.07814 24.140625 288.4922 12.347656 288.8086 .8125 C 288.47657 .789062 288.14064 .769531 287.8086 .75 C 287.48829 12.371094 288.07814 24.257813 290.84767 35.90625 C 295.3164 54.710939 305.14064 69.97266 318.5039 78.87109 C 321.59376 80.92969 324.9453 82.69531 328.1836 84.40625 C 333.53517 87.23047 339.0703 90.15234 343.42579 94.41016 C 350.8164 101.63281 354.10157 111.86328 357.27345 121.75391 C 358.60939 125.91016 359.98439 130.20313 361.65235 134.24219 C 370.97657 156.83203 390.4453 173.61719 408.26564 187.0625 C 410.3672 188.65235 412.4922 190.22657 414.6172 191.80469 C 426.10939 200.33985 437.97267 209.16016 447.2422 220.22657 C 447.34376 219.82422 447.4414 219.42578 447.54298 219.02344 C 438.26954 208.1289 426.5586 199.42969 415.21095 191.0039 Z M 157.66016 36.960939 C 161.7461 43.01172 167.72657 47.839845 174.5 50.554689 C 176.60547 51.402345 179.24219 52.160158 181.89844 52.160158 C 183.82813 52.160158 185.76563 51.76172 187.51953 50.69922 C 192.35157 47.76953 193.35547 41.320314 193.6914 36.726564 C 194.35157 27.664063 193.88672 18.644532 192.32032 9.777344 C 191.9961 9.863281 191.67578 9.957031 191.35157 10.046875 C 192.89063 18.800782 193.34375 27.703125 192.69532 36.65625 C 192.375 41.027345 191.4375 47.152345 187 49.84375 C 183.1875 52.15625 178.29688 51.003908 174.8711 49.628908 C 168.28125 46.984376 162.46485 42.285158 158.49219 36.402345 C 157.3164 34.660158 156.26563 32.765626 155.2461 30.9375 C 153.98047 28.660157 152.6836 26.335938 151.10938 24.21875 C 150.79297 24.355469 150.48047 24.492188 150.16407 24.632813 C 151.76563 26.75 153.08985 29.109375 154.3711 31.421875 C 155.39844 33.26953 156.46094 35.183595 157.66016 36.960939 Z M 434.6289 175.47266 C 430.1953 172.96094 425.47657 170.85157 420.91017 168.8125 C 417.42189 167.25782 413.8125 165.64844 410.3711 163.8711 C 400.77345 158.92188 394.23829 153.35157 390.39454 146.84766 C 385.1172 137.92578 384.76173 127.16406 384.41798 116.75781 C 384.23829 111.36719 384.0547 105.796878 383.20314 100.47266 C 380.94923 86.36719 373.48439 72.890628 362.72657 63.492189 C 359.33985 60.535158 355.52345 57.83203 351.83204 55.21875 C 343.26564 49.152345 334.40626 42.878908 330.76173 33.1875 C 327.5 24.503907 329.3164 15.289062 333.60548 7.382812 C 333.27345 7.304688 332.9375 7.222656 332.60548 7.148438 C 328.28517 15.234375 326.48439 24.644532 329.82814 33.539064 C 333.57814 43.515626 342.5625 49.878908 351.2539 56.035158 C 354.92579 58.63672 358.72267 61.32422 362.0703 64.24609 C 372.65235 73.49219 379.9961 86.75391 382.21876 100.62891 C 383.0586 105.890628 383.2422 111.42969 383.41798 116.78906 C 383.76564 127.32031 384.125 138.21485 389.53126 147.35547 C 393.47657 154.02735 400.14454 159.72266 409.91017 164.76172 C 413.3789 166.55078 417 168.16407 420.5039 169.72657 C 425.04689 171.75782 429.7461 173.85157 434.13673 176.34375 C 441.1953 180.34766 447.59376 185.4414 453.08985 191.38282 C 453.15235 190.96485 453.21485 190.54688 453.27345 190.125 C 447.83595 184.35938 441.55079 179.39844 434.6289 175.47266 Z M 147.13282 95.15625 C 147.91407 98.796878 148.71875 102.55859 150.33985 105.98828 C 152.41016 110.38672 155.58203 113.50781 159.26172 114.77734 C 160.57032 115.22656 161.89453 115.43359 163.21094 115.43359 C 169.17969 115.43359 174.98438 111.19922 178.35938 106.49609 C 180.73047 103.19141 182.46875 99.453128 184.14844 95.83594 C 185.47266 92.98047 186.84766 90.02734 188.51953 87.32422 C 190.8086 83.61719 193.73828 80.26172 196.57032 77.01172 C 198.09766 75.25781 199.67578 73.44531 201.14844 71.59375 C 214.67188 54.539064 220.97657 30.953125 218.45313 6.875 C 218.35938 5.949219 218.2461 5.023438 218.1289 4.097656 C 217.79688 4.152344 217.46875 4.2148439 217.14063 4.273438 C 217.25782 5.1757814 217.36719 6.078125 217.46094 6.980469 C 219.95703 30.800782 213.72657 54.121095 200.36328 70.97266 C 198.90625 72.80859 197.33594 74.609378 195.8164 76.35156 C 192.95703 79.63281 190 83.02344 187.66797 86.80078 C 185.96485 89.55469 184.57813 92.53125 183.23828 95.41406 C 181.57813 98.98828 179.86328 102.68359 177.54688 105.91406 C 173.63672 111.359378 166.34766 116.16016 159.58985 113.828128 C 154.96875 112.23828 152.3789 107.96484 151.24219 105.5625 C 149.67578 102.234378 148.8789 98.53125 148.10938 94.94531 L 147.84375 93.71484 C 143.53907 73.91016 136.21094 54.484376 126.36328 36.609376 C 126.07422 36.773439 125.78125 36.9375 125.49219 37.101564 C 135.28907 54.890626 142.58594 74.22266 146.86719 93.92578 L 147.13282 95.15625 Z M 47.253908 176.85938 C 49.95703 184.14063 52.753908 191.66797 52.73047 199.4375 C 52.70703 206.97266 50.023439 214.28125 47.429689 221.34766 C 45.835939 225.69532 44.214845 230.14453 43.171876 234.70313 C 43.378908 235.3086 43.597658 235.91407 43.808595 236.51953 C 44.79297 231.46485 46.597658 226.51953 48.371095 221.6914 C 50.992189 214.54297 53.70703 207.15235 53.73047 199.4414 C 53.753908 191.48828 50.92578 183.875 48.191408 176.51172 C 47.410158 174.40625 46.601564 172.23047 45.875 170.08594 C 41.859376 158.21875 39.921876 145.58594 40.0625 132.99219 C 39.71875 134.00782 39.398439 135.03125 39.078126 136.05469 C 39.257814 147.73828 41.203126 159.39844 44.92578 170.40625 C 45.65625 172.5625 46.46875 174.7461 47.253908 176.85938 Z M 358.3828 278.14845 C 360.85157 277.98439 362.78517 280.2422 364.54298 282.5664 C 372.09376 292.5547 380.6211 299.85939 389.8789 304.27735 C 396.95704 307.65626 404.53126 309.25 411.75 309.0078 C 411.9414 308.66798 412.1328 308.32814 412.32423 307.98829 C 405.08595 308.33985 397.4414 306.78126 390.3086 303.375 C 381.1953 299.02735 372.79689 291.8203 365.33985 281.96095 C 363.91798 280.08595 361.5547 276.9375 358.3164 277.14845 C 355.28907 277.34767 353.3711 280.42579 353.33204 283.16798 C 353.28907 286.09767 354.85939 288.70314 356.23439 290.64845 C 359.21095 294.8672 363.03517 298.53907 366.73439 302.08985 C 372.01173 307.16017 377.47267 312.40235 380.28907 319.16407 C 381.94923 323.14845 382.625 327.53907 383.27735 331.78517 C 383.5039 333.26173 383.73048 334.73439 383.9961 336.1914 C 384.53907 339.1836 385.42189 342.9961 387.21876 346.5078 C 387.4453 346.21095 387.67189 345.91407 387.89454 345.6172 C 386.30079 342.33595 385.48829 338.8086 384.98048 336.01564 C 384.71876 334.5625 384.4922 333.10157 384.26564 331.63673 C 383.60548 327.32814 382.92189 322.8789 381.21095 318.77735 C 378.3164 311.82423 372.77735 306.5078 367.42579 301.3672 C 363.76173 297.85157 359.97267 294.21095 357.05079 290.0703 C 355.76564 288.2539 354.29298 285.82423 354.33204 283.1836 C 354.36329 280.875 356 278.3047 358.3828 278.14845 Z M 173.29297 25.878907 C 174.20703 25.878907 175.10547 25.742188 175.95313 25.464844 C 180.17188 24.089844 182.48828 19.578125 182.91407 15.722656 C 183.03516 14.6328129 183.03907 13.535156 182.96485 12.445312 C 182.63672 12.546875 182.3125 12.652344 181.98438 12.753906 C 182.03516 13.7109379 182.02735 14.6640629 181.92188 15.613281 C 181.53125 19.152344 179.4375 23.277344 175.64453 24.515625 C 172.44922 25.558594 168.49219 24.320313 165.5625 21.359375 C 164.85938 20.648438 164.23438 19.875 163.66407 19.0625 C 163.34766 19.183594 163.02735 19.304688 162.71094 19.425782 C 163.35157 20.359375 164.05078 21.253907 164.85157 22.0625 C 167.28125 24.515625 170.38282 25.878907 173.29297 25.878907 Z M 54.914064 263.30079 C 55.09375 263.67189 55.26953 264.04689 55.453126 264.41798 C 68.109378 240.19922 74.92578 213.22657 75.203128 185.82813 C 75.49609 156.73828 68.41797 127.97656 54.726564 102.35156 C 54.523439 102.671878 54.3125 102.99219 54.11328 103.3125 C 67.55078 128.66797 74.49219 157.08594 74.203128 185.82032 C 73.92969 212.8125 67.27734 239.39063 54.914064 263.30079 Z M 398.1836 321.71095 C 400.21095 320.78126 402.55079 320.28907 405.16017 320.23048 C 405.3672 319.89454 405.5703 319.5625 405.77345 319.22657 C 402.76954 319.21876 400.08204 319.73829 397.76954 320.8047 C 394.21485 322.4336 391.59767 325.40626 390.76564 328.7539 C 389.96876 331.96485 390.77345 335.60548 392.92189 338.76564 C 393.1289 338.46876 393.33985 338.17579 393.54689 337.8789 C 391.71876 335.03126 391.03517 331.8203 391.73829 328.9922 C 392.4961 325.9375 394.90626 323.21876 398.1836 321.71095 Z M 187.21875 398.625 C 193.04297 400.92579 198.38672 404.4414 202.88672 408.8125 C 201.98438 408.4414 201.07813 408.0664 200.17578 407.6836 C 196.21875 404.2578 191.71094 401.47657 186.85157 399.5586 C 186.20703 399.3047 185.53125 399.07423 184.96485 399.26564 C 184.58985 399.39064 184.34375 399.6797 184.17969 400.04689 C 183.88282 399.89064 183.58203 399.73048 183.28125 399.5703 C 183.55078 398.9922 183.98828 398.53907 184.64453 398.3164 C 185.53125 398.01564 186.4375 398.3203 187.21875 398.625 " fill="#f9d291"/>
</g>
<clipPath id="cp4">
<path transform="matrix(.6666666,0,0,.6666666,0,0)" d="M 529.2625 493.8456 L 1354.6467 493.8456 L 1354.6467 880.7288 L 529.2625 880.7288 Z " fill-rule="evenodd"/>
</clipPath>
<g clip-path="url(#cp4)">
<path transform="matrix(1.6236299,0,0,1.6221517,138.52249,162.14876)" d="M 470.92189 134.19922 C 470.8828 136.3711 469.59376 138.32422 467.6172 139.21485 C 465.86329 140.00782 463.82814 139.84375 462.22267 138.78516 L 421.35157 109.16797 L 425.0586 103.54297 L 468.39845 129.41016 C 470.0039 130.46875 470.95704 132.27735 470.92189 134.19922 Z M 307.84376 139.03907 L 303.30079 200.1836 C 303.03126 203.69532 301.76954 207.05469 299.65626 209.875 L 268.70704 255.16016 L 251.58985 246.19922 L 272.46095 199.04297 L 277.20704 136.73438 C 277.95314 126.96875 287.52345 120.38281 296.91017 123.17969 C 303.82814 125.23828 308.3789 131.83985 307.84376 139.03907 Z M 245.91016 163.98828 L 241.79297 128.96094 C 241.15625 123.5625 244.10938 119.03125 248.32032 116.93359 C 248.32032 116.93359 249.6875 139.55078 256.15626 156.67188 C 261.0703 169.67188 272.47657 178.69922 272.47657 178.69922 C 271.15626 180.39453 269.60157 181.92188 267.83204 183.22657 L 221.35938 217.52735 L 214.08594 208.54688 L 245.91016 163.98828 Z M 217.45313 247.5664 L 204.20703 247.5664 L 204.20703 246.5664 L 217.45313 246.5664 L 217.45313 247.5664 Z M 217.45313 250.85938 L 204.20703 250.85938 L 204.20703 249.85938 L 217.45313 249.85938 L 217.45313 250.85938 Z M 217.45313 254.15625 L 204.20703 254.15625 L 204.20703 253.15625 L 217.45313 253.15625 L 217.45313 254.15625 Z M 222.72657 247.82032 L 223.6289 246.49219 C 224.19922 245.64844 224.50782 244.65235 224.50782 243.63282 L 224.50782 227.72657 C 224.50782 225.0664 221.53516 222.09766 217.875 222.09766 L 202.6289 222.09766 L 198.6211 227.89453 C 197.89844 228.9414 196.51953 229.30469 195.3789 228.7461 C 194.11328 228.13282 193.57813 226.6211 194.16407 225.35157 L 195.64063 222.16797 C 193.32422 222.5039 191.32422 224.03907 190.4336 226.2539 L 189.10547 229.5586 L 194.8086 233.85938 L 197.00782 229.0586 L 218.50782 229.0586 L 218.50782 242.20703 L 218.28516 242.5586 L 194.13672 242.5586 C 192.23047 236.57813 186.63282 232.24219 180.01953 232.24219 C 173.40235 232.24219 167.80469 236.57813 165.89844 242.5586 L 152.3164 242.5586 C 146.78516 242.5586 141.66407 245.46094 138.8164 250.20313 L 132.60547 260.5586 L 173.90625 260.5586 C 175.77344 261.40626 177.83594 261.89064 180.01953 261.89064 C 182.19922 261.89064 184.26172 261.40626 186.1289 260.5586 L 222.67188 260.5586 C 225.90625 260.5586 227.9414 257.07814 226.35547 254.25782 L 222.72657 247.82032 " fill="#ef2c5f"/>
</g>
<clipPath id="cp5">
<path transform="matrix(.6666666,0,0,.6666666,0,0)" d="M 207.77178 243.22315 L 1354.6467 243.22315 L 1354.6467 1318.2232 L 207.77178 1318.2232 Z " fill-rule="evenodd"/>
</clipPath>
<g clip-path="url(#cp5)">
<path transform="matrix(1.6236299,0,0,1.6221517,138.52249,162.14876)" d="M 407.6875 260.5586 L 265.4297 260.5586 C 263.72657 263.14454 261.73829 265.77345 260.4414 266.22657 C 257.77345 267.16017 251.97266 266.42579 251.97266 266.42579 L 248.95703 272.9922 C 248.6836 273.58985 248.08594 273.97267 247.42969 273.97267 L 407.6875 273.97267 L 407.6875 260.5586 Z M 20.484375 260.5586 L 20.484375 273.97267 L 224.375 273.97267 C 225.10938 270.57423 226.0625 266.32814 226.3711 265.6289 C 226.6836 264.92579 228.65235 262.63673 230.5586 260.5586 L 20.484375 260.5586 Z M 229.23828 273.97267 L 233.42188 273.97267 L 233.83985 270.16017 L 234.97266 266.16017 L 231.17188 269.96095 L 229.23828 273.97267 Z M 404.58985 90.05859 L 400.88673 95.68359 L 431.03907 115.55078 L 434.7422 109.92578 L 404.58985 90.05859 Z M 133.21875 73.125 C 134.0586 74.16797 135.58985 74.33594 136.63282 73.49219 C 137.67969 72.65234 137.84375 71.125 137.0039 70.08203 C 136.16407 69.03516 134.63672 68.87109 133.58985 69.71094 C 132.54688 70.55078 132.3789 72.078128 133.21875 73.125 Z M 146.98438 90.24219 C 147.82422 91.28516 149.35547 91.453128 150.39844 90.61328 C 151.44532 89.77344 151.60938 88.24219 150.76953 87.19922 C 149.92969 86.15234 148.40235 85.98828 147.35547 86.828128 C 146.3125 87.66797 146.14453 89.19531 146.98438 90.24219 Z M 118.76953 80.89453 C 116.88672 78.55469 117.25781 75.13281 119.59766 73.24609 L 119.71875 73.15234 L 152.11719 47.097658 C 154.60547 45.097658 158.24219 45.48828 160.2461 47.976564 L 183.42969 76.80859 C 185.42969 79.296878 185.03516 82.93359 182.54688 84.93359 L 173.92578 91.86719 L 169 85.73828 L 175.42969 80.57031 L 180.35547 86.69531 L 181.13672 86.07031 L 150.70313 48.23047 L 149.92578 48.859376 L 154.85157 54.984376 L 148.42578 60.152345 L 143.4961 54.027345 L 142.71875 54.65625 L 173.14844 92.49219 L 171.33203 93.953128 C 170.0625 94.97656 168.54688 95.640628 166.9375 95.88672 L 165.96485 96.03516 L 137.875 100.328128 C 135.95703 100.62109 134.02735 99.87109 132.8125 98.359378 L 118.76953 80.89453 Z M 306.33204 414.5586 L 291.4336 414.5586 C 289.51173 414.5586 287.92189 416.08985 287.88673 418.0078 C 287.85157 419.79689 287.64064 421.76954 286.9297 422.5586 C 285.66407 423.96876 267.96095 422.59767 264.10548 435.5586 L 283.60548 438.2461 C 287.51954 438.78517 291.48829 438.7461 295.39064 438.1328 L 311.71485 435.5586 L 309.95704 417.84376 C 309.77345 415.98048 308.20704 414.5586 306.33204 414.5586 Z M 416.09376 417.84376 L 417.84767 435.5586 L 408.0703 437.1914 C 400.64454 438.4297 393.0664 438.4336 385.64064 437.19923 L 383.8711 435.5586 C 386.65235 422.59767 391.80079 423.96876 393.0625 422.5586 C 393.77735 421.76954 393.98829 419.79689 394.01954 418.0078 C 394.0547 416.08985 395.64845 414.5586 397.5703 414.5586 L 412.46876 414.5586 C 414.33985 414.5586 415.90626 415.98048 416.09376 417.84376 " fill="#f7ca13"/>
</g>
<clipPath id="cp6">
<path transform="matrix(.6666666,0,0,.6666666,0,0)" d="M 207.78376 338.11903 L 1228.2352 338.11903 L 1228.2352 1318.13 L 207.78376 1318.13 Z " fill-rule="evenodd"/>
</clipPath>
<g clip-path="url(#cp6)">
<path transform="matrix(1.6236299,0,0,1.6221517,138.52249,162.14876)" d="M 368.8672 194.03125 C 368.71095 193.80469 368.39845 193.7461 368.17189 193.90235 C 364.14064 196.6836 359.23439 198.0039 354.34767 197.625 C 354.0664 197.60157 353.83204 197.8086 353.8125 198.08594 C 353.78907 198.35938 353.9961 198.60157 354.26954 198.6211 C 354.84376 198.66407 355.41798 198.6875 355.9922 198.6875 C 360.52345 198.6875 364.9922 197.3086 368.73829 194.72657 C 368.96485 194.57032 369.02345 194.25782 368.8672 194.03125 Z M 344.1172 191.03516 C 348.15626 193.17578 352.77345 194.2539 357.38673 194.2539 C 361.2578 194.2539 365.1289 193.49219 368.64454 191.95703 C 368.89454 191.84766 369.01173 191.55078 368.90235 191.30078 C 368.78907 191.04688 368.4961 190.92969 368.2422 191.03907 C 360.8164 194.28516 351.75 193.94532 344.58595 190.15235 C 344.33985 190.02344 344.03907 190.11719 343.91017 190.35938 C 343.78126 190.60547 343.8711 190.90625 344.1172 191.03516 Z M 329.41798 243.97657 C 324.6289 235.91016 320.96876 227.22266 318.54689 218.16016 C 318.47657 217.89063 318.19923 217.73438 317.9336 217.80469 C 317.66798 217.875 317.5078 218.14844 317.57814 218.41797 C 320.02735 227.57032 323.71876 236.33985 328.5586 244.48828 C 328.65235 244.64453 328.8164 244.73047 328.98829 244.73047 C 329.07423 244.73047 329.16407 244.71094 329.2422 244.66016 C 329.48048 244.51953 329.5586 244.21485 329.41798 243.97657 Z M 390.1211 260.5586 L 342.3086 260.5586 L 338.19923 246.3125 C 339.9961 245.89453 341.79689 245.4961 343.59767 245.1289 C 343.8672 245.07422 344.03907 244.8086 343.98439 244.53907 C 343.9297 244.26953 343.66407 244.09375 343.39454 244.14844 C 335.9336 245.67578 328.47657 247.63672 321.22657 249.97657 C 320.96485 250.0625 320.8203 250.34375 320.90626 250.60938 C 320.97657 250.82032 321.17189 250.95313 321.3828 250.95313 C 321.4336 250.95313 321.48439 250.94532 321.53517 250.92969 C 326.89064 249.19922 332.36329 247.67969 337.86329 246.39063 L 333.89845 260.5586 L 283.51173 260.5586 L 295.1953 216.40625 L 299.5 210.10938 C 300.4297 210.23047 301.6172 210.32422 303.08595 210.32422 C 306.6328 210.32422 311.77735 209.77344 318.67189 207.7539 C 342.1914 200.85547 355.6289 172.65625 355.7578 172.3711 C 355.76954 172.35547 355.76564 172.33594 355.77345 172.3164 C 359.3047 173.57422 382.52345 183.14844 385.97267 219.05078 C 386.90235 228.73047 388.52345 244.85547 390.1211 260.5586 Z M 252.46094 120.56641 C 250.82422 119.37891 249.83594 117.390628 249.875 115.37109 C 249.88282 115.09375 249.66016 114.86719 249.38672 114.859378 C 249.10547 114.85547 248.88282 115.07422 248.875 115.35156 C 248.82813 117.69141 249.97657 120 251.8711 121.375 C 251.96094 121.4375 252.0664 121.46875 252.16407 121.46875 C 252.32032 121.46875 252.47266 121.39844 252.57032 121.265628 C 252.73438 121.03906 252.6836 120.72656 252.46094 120.56641 Z M 273.6328 183.66016 C 267.33204 178.98047 259.28907 176.48047 255.64063 170.29297 C 250.85157 162.17188 252.13672 151.83985 250.17578 147.4961 C 246.13282 138.5625 244.3164 127.62891 248.08985 118.60156 C 247.95313 118.42578 247.82422 118.25391 247.69922 118.09766 C 246.07422 116.04297 244.63282 113.60547 244.78516 110.98828 C 244.9414 108.34766 246.67969 106.09375 248.3164 104.01953 C 248.78516 103.91406 249.16407 103.828128 249.63282 103.72266 C 251.6211 104.78125 253.60157 106.30469 254.71094 108.44141 C 255.63672 110.234378 256.42189 112.70703 257.0586 115.21094 C 257.0625 115.23047 257.0664 115.24609 257.0703 115.265628 C 257.1875 115.71875 257.29689 116.171878 257.40235 116.62109 C 257.4336 116.76172 257.46485 116.89844 257.4961 117.03516 C 257.5703 117.34766 257.63673 117.65234 257.70314 117.96094 C 257.76564 118.24609 257.82423 118.53125 257.8828 118.8125 C 257.91017 118.94922 257.9375 119.078128 257.96485 119.21484 C 258.1172 119.96484 258.2578 120.69531 258.3789 121.359378 C 258.3789 121.34766 258.3789 121.33594 258.3789 121.32031 C 258.3711 121.046878 258.36329 120.76953 258.35548 120.48828 C 258.35548 120.43359 258.35548 120.38281 258.35548 120.33203 C 258.34767 120.07031 258.34767 119.80469 258.34376 119.53906 C 258.34376 119.484378 258.34376 119.42969 258.34376 119.37891 C 258.33985 118.74609 258.34376 118.10547 258.35939 117.46094 C 258.35939 117.40625 258.35939 117.34766 258.36329 117.28906 C 258.3672 117.03906 258.3789 116.78516 258.38673 116.53516 C 258.39064 116.44531 258.39454 116.35156 258.39845 116.26172 C 258.41017 116.03516 258.42189 115.81641 258.4375 115.59766 C 258.4414 115.50391 258.4453 115.41016 258.45314 115.32031 C 258.46876 115.07031 258.48829 114.828128 258.51173 114.58984 C 258.51564 114.53125 258.51954 114.47656 258.52345 114.41797 C 258.55079 114.12109 258.58204 113.83594 258.6172 113.55078 C 258.625 113.48828 258.6328 113.42969 258.64064 113.36719 C 258.67189 113.15234 258.69923 112.9375 258.73439 112.73047 C 258.7461 112.640628 258.76173 112.55469 258.77735 112.46484 C 258.8086 112.28906 258.84376 112.11328 258.8789 111.94531 C 258.89454 111.859378 258.91407 111.76953 258.9336 111.68359 C 258.96876 111.51172 259.01173 111.34375 259.0547 111.17969 C 259.07423 111.11328 259.08985 111.04297 259.10939 110.97656 C 259.17189 110.75781 259.23829 110.54297 259.3125 110.34766 C 259.32423 110.3125 259.33985 110.28125 259.35157 110.24609 C 259.41407 110.08984 259.48048 109.93359 259.54689 109.79297 C 259.57814 109.734378 259.60548 109.67969 259.63673 109.625 C 259.6953 109.515628 259.7578 109.41016 259.8203 109.31641 C 259.85548 109.26172 259.89064 109.21484 259.92579 109.16406 C 259.9922 109.07422 260.0664 108.99219 260.14064 108.91797 C 260.17189 108.88281 260.20704 108.84375 260.2422 108.80859 C 260.35157 108.71094 260.46876 108.625 260.58985 108.5625 L 260.59376 108.55859 C 260.72657 108.49219 260.8672 108.40234 261.01173 108.30078 C 261.05079 108.27344 261.08985 108.24609 261.1289 108.21875 C 261.2461 108.12891 261.3672 108.03516 261.4922 107.92969 C 261.52345 107.90625 261.55079 107.88281 261.58595 107.85156 C 261.90626 107.57031 262.25 107.23047 262.60157 106.84766 C 262.61329 106.83594 262.625 106.82031 262.63673 106.80859 C 263.3711 106.00391 264.14845 105.015628 264.92189 103.94531 L 264.92579 103.94531 C 266.64845 101.56641 268.35157 98.80078 269.4922 96.875 C 270.76954 94.71094 272.96876 93.18359 275.46876 92.96094 C 275.64845 92.94141 275.82814 92.93359 276.0078 92.92969 C 278.3164 92.90234 285.3672 102.47266 286.42189 103.921878 C 286.25 103.953128 286.09376 104.06641 286.03126 104.24609 C 283.1289 112.54297 276.0664 119.17969 267.60548 121.55859 C 267.33985 121.63281 267.1836 121.91016 267.2578 122.17578 C 267.3203 122.39453 267.51954 122.53906 267.73829 122.53906 C 267.78517 122.53906 267.82814 122.53125 267.875 122.51953 C 276.64845 120.05469 283.96876 113.17578 286.97657 104.57422 C 287.01564 104.46094 287.0039 104.34766 286.96876 104.24219 C 290.0664 105.19141 293.32814 106.59766 296.6289 108.64844 C 306.41017 114.73047 320.6836 136.95703 332.4414 151.09375 C 336.66017 156.16797 344.83204 161.0625 351.03907 164.32032 C 353.89064 165.8125 355.32814 168.78907 355.08595 171.72266 C 354.98829 171.76953 354.90235 171.84375 354.85548 171.94922 C 354.72267 172.22657 341.48048 200.02344 318.39064 206.79297 C 315.97267 207.5039 313.79298 208.01172 311.8047 208.39063 C 305.9961 208.35547 304.3047 205.0625 303 202.32813 C 303.13673 201.6211 303.2461 200.90625 303.30079 200.1836 L 307.84376 139.03907 C 308.3789 131.83985 303.82814 125.23828 296.91017 123.17969 C 287.52345 120.38281 277.95314 126.96875 277.20704 136.73438 L 274.2461 175.61719 C 270.39845 171.66407 267.01564 167.35547 264.5625 162.42578 C 258.64454 150.53516 258.8164 136.4961 258.96876 124.11328 C 258.97267 123.83594 258.7539 123.609378 258.47657 123.60547 C 258.47267 123.60547 258.47267 123.60547 258.46876 123.60547 C 258.1953 123.60547 257.97267 123.828128 257.96876 124.10156 C 257.8164 136.60157 257.64064 150.76563 263.66407 162.8711 C 266.3086 168.17578 269.98048 172.75782 274.14454 176.9414 L 273.6328 183.66016 Z M 302.63673 203.85547 C 302.09767 205.73438 301.26173 207.52344 300.16017 209.15235 C 301.9922 209.33985 304.71876 209.40235 308.39454 208.9375 C 305.20704 208.02344 303.6836 205.86328 302.63673 203.85547 Z M 279.26173 276.6211 C 271.16017 307.22657 270.29689 339.29689 276.73439 370.29689 L 287.39845 405.96095 L 312.73829 405.96095 L 313.5078 333.45314 L 330.14845 273.97267 L 279.96095 273.97267 L 279.26173 276.6211 Z M 415.9961 406.16017 L 415.9961 397.60939 C 415.9961 371.64064 411.01564 345.91017 401.32423 321.8164 L 394.70704 305.35939 C 394.70704 305.35939 393.2578 291.29689 391.48829 273.97267 L 346.1797 273.97267 L 358.03907 315.09376 C 365.15235 342.8086 374.8125 349.35548 380.03126 367.35157 L 391.9297 406.16017 L 415.9961 406.16017 Z M 370.61329 105.58984 L 380.09767 111.83594 C 380.60939 112.171878 381.29689 112.03125 381.6328 111.51953 L 385.3203 105.921878 C 385.65626 105.41016 385.51564 104.72266 385.0039 104.38672 L 384.4336 104.01172 C 384.4336 104.01172 385.88673 99.06641 388.0078 95.84375 L 389.90235 97.09375 C 391.20314 97.94922 392.94923 97.58984 393.8047 96.28906 L 395.82814 93.21875 L 400.48439 96.28516 L 404.98829 89.453128 L 400.33204 86.38672 L 402.3789 83.28125 C 403.21876 82.00391 402.8828 80.296878 401.63673 79.42578 C 403.61329 76.14453 408.39454 69.01953 416.21876 62.210939 C 416.65626 61.83203 416.60548 61.171876 416.14454 61.316408 C 414.3164 61.890626 411.1953 63.035158 407.6914 65.03125 C 409.25 63.382814 410.98048 61.691408 412.90235 60.023439 C 413.33595 59.64453 413.28517 58.984376 412.82423 59.128908 C 408.9297 60.351564 399.16017 64.171878 392.32423 73.28125 L 391.96485 73.046878 C 390.66407 72.1875 388.91798 72.546878 388.0625 73.84766 L 379.48829 86.85547 C 378.6328 88.15625 378.9922 89.90625 380.29298 90.76172 L 382.1875 92.00781 C 380.0664 95.23047 376.09376 98.515628 376.09376 98.515628 L 375.52345 98.140628 C 375.01173 97.80469 374.32423 97.94531 373.98829 98.453128 L 370.29689 104.05469 C 369.96095 104.5625 370.10548 105.25 370.61329 105.58984 Z M 164.1914 109.47266 L 161.94532 106.68359 L 164.44922 105.234378 L 172.74219 104.46875 L 170.53125 101.71875 L 165.96485 96.03516 L 137.875 100.328128 C 135.95703 100.62109 134.02735 99.87109 132.8125 98.359378 L 118.76953 80.89453 C 116.88672 78.55469 117.25781 75.13281 119.59766 73.24609 L 0 169.42969 L 16.953125 190.51172 L 27.378907 189.54688 L 24.597657 186.08985 L 25.628907 185.49219 L 35.929689 184.53907 L 33.183595 181.1289 L 34.304689 180.47657 L 44.48047 179.53516 L 41.76953 176.16407 L 42.984376 175.46094 L 53.03125 174.53125 L 50.351564 171.19922 L 51.660158 170.44532 L 61.58203 169.52735 L 58.9375 166.23828 L 60.335939 165.42969 L 70.13281 164.52344 L 67.51953 161.27344 L 69.01172 160.41407 L 78.68359 159.51563 L 76.10547 156.3125 L 77.6875 155.39844 L 87.234378 154.51172 L 84.69141 151.34766 L 86.36328 150.38282 L 95.78516 149.50782 L 93.27344 146.38672 L 95.03906 145.36328 L 104.33594 144.5039 L 101.859378 141.42188 L 103.71875 140.34766 L 112.88672 139.5 L 110.44141 136.46094 L 112.39453 135.33203 L 121.4375 134.49219 L 119.02734 131.4961 L 121.07031 130.3164 L 129.98828 129.48828 L 127.609378 126.53516 L 129.7461 125.30078 L 138.53907 124.484378 L 136.19532 121.57031 L 138.42188 120.28125 L 147.08985 119.48047 L 144.77735 116.609378 L 147.09766 115.265628 L 155.64063 114.47656 L 153.36328 111.64453 L 155.77344 110.25 L 164.1914 109.47266 Z M 175.42969 80.57031 L 180.35547 86.69531 L 181.13672 86.07031 L 150.70313 48.23047 L 149.92578 48.859376 L 154.85157 54.984376 L 175.42969 80.57031 Z M 173.92578 91.86719 L 169 85.73828 L 148.42578 60.152345 L 143.4961 54.027345 L 142.71875 54.65625 L 173.14844 92.49219 L 173.92578 91.86719 Z M 147.35547 86.828128 C 146.3125 87.66797 146.14453 89.19531 146.98438 90.24219 C 147.82422 91.28516 149.35547 91.453128 150.39844 90.61328 C 151.44532 89.77344 151.60938 88.24219 150.76953 87.19922 C 149.92969 86.15234 148.40235 85.98828 147.35547 86.828128 Z M 136.63282 73.49219 C 137.67969 72.65234 137.84375 71.125 137.0039 70.08203 C 136.16407 69.03516 134.63672 68.87109 133.58985 69.71094 C 132.54688 70.55078 132.3789 72.078128 133.21875 73.125 C 134.0586 74.16797 135.58985 74.33594 136.63282 73.49219 Z M 262.35939 76.27734 C 262.29689 76.34766 262.28517 76.44922 262.33204 76.53516 C 262.39454 76.64453 262.53126 76.67969 262.64064 76.62109 L 262.67579 76.59766 C 263.04689 76.390628 263.3789 76.19531 263.72657 75.94531 C 264.07423 75.66797 264.48048 75.265628 264.52735 74.62891 C 264.53907 74.328128 264.46876 74.015628 264.26564 73.73828 C 264.08204 73.49219 263.77345 73.33594 263.46876 73.30078 C 263.78126 72.95703 264.14454 72.640628 264.5664 72.38281 C 264.63673 72.34375 264.67579 72.26172 264.66017 72.17969 C 264.63673 72.07422 264.53517 72.00781 264.4297 72.02734 C 263.8828 72.140628 263.35157 72.39844 262.91017 72.76953 C 262.45704 73.13281 262.08204 73.60156 261.82814 74.140628 C 261.7461 74.30859 261.77345 74.51953 261.90626 74.66797 C 262.08595 74.86328 262.39064 74.87891 262.58595 74.69922 L 262.59376 74.69531 C 262.86329 74.44922 263.19923 74.27344 263.33985 74.28125 C 263.41017 74.28125 263.44923 74.296878 263.4922 74.34375 C 263.53907 74.39453 263.58595 74.5 263.58985 74.609378 C 263.60939 74.80859 263.47267 75.11719 263.21485 75.375 C 262.9375 75.65625 262.625 75.96875 262.35939 76.27734 Z M 253.35547 97.12891 C 254.91016 95.609378 256.34767 93.99219 257.59767 92.22266 C 258.82814 90.46484 260.04298 88.61328 260.54689 86.4375 C 260.5703 86.32422 260.5078 86.21094 260.39845 86.171878 C 260.28126 86.13281 260.15235 86.19531 260.11329 86.3125 L 260.10548 86.328128 C 259.4414 88.29297 258.17579 90.03906 256.90626 91.71094 C 255.59766 93.36328 254.21485 94.98047 252.67969 96.41016 C 251.1914 97.86328 249.39453 98.93359 247.46485 99.76953 C 245.54688 100.61719 243.51953 101.25391 241.42969 101.53906 C 241.33594 101.55469 241.26172 101.63672 241.26172 101.734378 C 241.26172 101.83984 241.34766 101.92578 241.45313 101.921878 C 243.63282 101.89844 245.76953 101.35156 247.80078 100.578128 C 249.80469 99.77344 251.78907 98.6875 253.35547 97.12891 Z M 241.41797 92.70703 C 241.40625 92.578128 241.28907 92.48047 241.16016 92.49219 L 240.0664 92.59375 C 239.71094 92.61719 239.35938 92.64844 239.00782 92.65625 C 238.65625 92.67578 238.30469 92.66406 237.94532 92.66797 L 236.83985 92.63672 C 236.77735 92.63281 236.71094 92.66016 236.67188 92.71875 C 236.60547 92.80469 236.625 92.92969 236.71485 92.99609 C 237.04688 93.23828 237.42969 93.39453 237.82032 93.50391 C 238.21485 93.61719 238.625 93.65625 239.03125 93.65625 C 239.4414 93.64453 239.85157 93.58984 240.23828 93.46094 C 240.6289 93.33984 241.0039 93.171878 241.32813 92.91406 C 241.38672 92.86719 241.42578 92.78906 241.41797 92.70703 Z M 239.92969 91.01172 C 241.15625 90.80859 242.35938 90.453128 243.48438 89.92578 C 244.61328 89.39844 245.67188 88.72656 246.57422 87.88672 C 246.65235 87.81641 246.67188 87.69531 246.60938 87.60156 C 246.54688 87.49609 246.40235 87.46094 246.29688 87.52734 C 245.28516 88.15234 244.23438 88.69531 243.14063 89.109378 C 242.04688 89.51953 240.91797 89.83984 239.76563 90.02734 C 238.61328 90.22656 237.44532 90.28906 236.27344 90.26172 C 235.10157 90.22266 233.92969 90.05078 232.76563 89.78516 C 232.67969 89.765628 232.58594 89.80859 232.54688 89.89453 C 232.5039 89.98828 232.54688 90.10547 232.64453 90.14844 C 233.76172 90.65625 234.97657 90.96094 236.21094 91.10156 C 237.4414 91.25 238.69922 91.203128 239.92969 91.01172 Z M 238.2461 85.53125 C 238.16016 85.73047 238.04297 85.91797 237.90625 86.140628 L 237.89453 86.16016 C 237.86328 86.21094 237.85157 86.26953 237.85938 86.328128 C 237.88282 86.46094 238.00782 86.55078 238.14063 86.52734 C 238.46094 86.47266 238.74219 86.28516 238.96485 86.046878 C 239.19532 85.80859 239.34375 85.49609 239.41407 85.16406 C 239.47657 84.83203 239.46094 84.48828 239.33985 84.17969 C 239.22657 83.875 239.03907 83.59766 238.76563 83.42578 C 238.72657 83.39844 238.67578 83.38672 238.625 83.39453 C 238.51172 83.41016 238.4375 83.515628 238.45313 83.62891 L 238.45313 83.64453 C 238.53125 84.16406 238.52735 84.57031 238.4375 84.96094 C 238.39844 85.15234 238.32422 85.33594 238.2461 85.53125 Z M 234.77735 76.80859 C 235.28907 76.22656 235.8125 75.65625 236.35547 75.10156 C 236.4336 75.02734 236.55469 75.02734 236.6289 75.10156 C 236.69532 75.16797 236.70313 75.26953 236.65235 75.34375 C 236.2461 75.953128 235.82422 76.55078 235.40235 77.140628 C 235.66407 77.28125 235.92578 77.42969 236.19922 77.58203 C 238.3789 78.80078 240.84766 80.18359 244.04688 80.38672 C 248.8711 80.69531 251.375 78.53906 253.38282 76.80859 C 253.75 76.49219 254.09766 76.19141 254.4336 75.92969 C 255.32032 75.23828 256.22657 74.671878 257.09767 74.20703 C 257.1211 73.34766 257.16407 72.41016 257.20704 71.48047 C 257.27735 69.98828 256.90235 68.5625 256.20704 67.28516 C 248.59766 66.44922 235.625 65.52734 224.13282 67.19922 C 223.5039 71.57031 223.33985 78.33984 225.48828 78.99219 C 227.05469 79.46875 227.625 78.75391 228.41016 77.765628 C 229.10157 76.890628 229.89063 75.89844 231.46875 75.82422 C 231.52344 75.82031 231.58203 75.82031 231.64063 75.82031 C 232.63672 75.82031 233.66407 76.234378 234.77735 76.80859 Z M 232.83203 86.41797 C 232.15625 86.22656 231.49219 85.84766 231.04688 85.20703 C 230.58203 84.56641 230.53516 83.70703 230.69532 83.015628 C 230.85157 82.30859 231.15625 81.6875 231.4961 81.11328 C 232.20703 80.01172 232.95313 78.96094 233.77735 77.96875 C 233.88282 77.83984 233.9961 77.71484 234.10547 77.58984 C 233.14844 77.109378 232.28125 76.78906 231.51563 76.82422 C 230.39063 76.87891 229.83594 77.578128 229.1914 78.38672 C 228.35938 79.43359 227.41407 80.62109 225.19532 79.94922 C 221.4414 78.80859 223.00782 67.921878 223.19922 66.68359 L 223.2539 66.32031 L 223.61719 66.265628 C 234.91407 64.5625 247.67969 65.38281 255.51563 66.21094 C 255.17188 65.74609 254.78125 65.30859 254.34766 64.91016 C 253.52735 64.15234 252.86719 63.179689 252.4414 62.164064 C 249.36719 62.246095 246.1836 60.476564 243.8086 58.523439 C 241.21485 60.35547 238.59766 62.203126 235.69532 63.492189 C 232.78907 64.78516 229.79688 65.265628 226.66407 64.72266 C 224.34375 62.308595 223.09766 58.898439 223.30469 55.558595 C 223.51172 52.21875 225.17578 48.992189 227.77344 46.882814 C 229.47657 45.5 231.875 44.589845 233.85938 45.527345 C 236.53125 40.89453 242.26563 38.246095 247.52735 39.21875 L 245.66797 41.94922 C 249.41407 40.871095 253.78907 42.67578 255.6836 46.078126 C 257.76954 44.92578 260.3164 44.64453 262.60157 45.320314 C 264.88673 45.992189 266.8789 47.61328 268 49.714845 C 269.07423 51.722658 269.52345 54.296876 271.48439 55.460939 C 272.29298 55.9375 273.29298 56.117189 273.96485 56.773439 C 275.16798 57.94922 274.73829 59.941408 274.22267 61.546876 C 273.4414 63.964845 272.66017 66.38672 271.8828 68.80469 C 271.40235 70.28516 272.71876 72.52344 273.8047 73.640628 C 274.13673 73.98047 274.52345 74.29297 274.71485 74.72656 C 274.91017 75.16016 274.82423 75.77344 274.39064 75.96875 C 273.97267 76.15625 273.38673 75.90625 273.07814 76.24219 C 272.78126 76.5625 273.03126 77.07031 273.29298 77.41406 C 273.66017 77.90234 274.0547 78.38672 274.28126 78.953128 C 274.51173 79.51953 274.55079 80.19922 274.22657 80.71875 C 273.89845 81.23828 273.14064 81.48828 272.64064 81.140628 C 273.14064 81.64453 273.65235 82.16406 273.92189 82.82422 C 274.1914 83.484378 274.15626 84.32031 273.64845 84.81641 C 272.84767 85.60547 271.8711 84.78906 270.8672 84.28125 C 271.4414 85.625 271.92189 87.00781 272.3086 88.41797 C 272.41407 88.80469 272.5078 89.23828 272.30079 89.578128 C 272.04689 90.00781 271.45314 90.078128 270.96485 89.98047 C 270.47657 89.88281 270.02735 89.32031 269.53126 89.34375 C 270.39454 90.69141 270.83204 92.08594 270.8125 93.68359 C 265.8125 91.15625 262.47657 85.203128 262.32814 79.60547 C 264.23829 79.19531 266.04689 78.11328 267.0664 76.453128 C 268.08595 74.78906 268.1836 72.52734 267.07814 70.921878 C 266.65626 70.30859 266.04298 69.78906 265.3125 69.640628 C 264.1797 69.41406 263.0625 70.12109 262.25 70.94531 C 261.4375 71.765628 259.9961 76.63281 259.0078 77.23047 C 258.47267 77.1875 257.6875 76.86328 257.15626 76.82031 C 257.10939 76.41406 257.08985 75.91406 257.08595 75.36328 C 256.41017 75.74609 255.72266 76.19141 255.04688 76.71875 C 254.72266 76.97266 254.39063 77.26172 254.03516 77.56641 C 252.13282 79.20703 249.5664 81.41797 244.95313 81.41797 C 244.64063 81.41797 244.3164 81.40625 243.98438 81.38672 C 240.5586 81.16406 237.8711 79.66016 235.71094 78.453128 C 235.40235 78.28125 235.10938 78.11719 234.8164 77.96094 C 234.69532 78.13281 234.57032 78.30469 234.44922 78.48047 C 233.72266 79.515628 232.98047 80.55469 232.35157 81.62891 C 231.71094 82.640628 231.2539 83.84766 231.78907 84.73047 C 232.32422 85.65625 233.60157 85.98828 234.83985 86.08984 C 234.96485 86.10156 235.0586 86.21094 235.04688 86.33594 C 235.03907 86.44531 234.94922 86.53125 234.83985 86.54297 L 234.83594 86.54297 C 234.1875 86.59766 233.51172 86.58594 232.83203 86.41797 Z M 231.46485 69.18359 C 230.98438 69.03906 230.48438 68.96875 229.98828 69.01953 C 229.4961 69.0625 229.0039 69.19531 228.59375 69.46484 C 228.52735 69.51172 228.48438 69.58984 228.48828 69.67578 C 228.4961 69.80469 228.60547 69.90234 228.73438 69.89453 L 228.74219 69.89453 C 229.17578 69.86719 229.58594 69.859378 229.99219 69.90234 C 230.39453 69.953128 230.78907 70.01953 231.17188 70.13672 C 231.55469 70.24609 231.92188 70.40625 232.28516 70.58984 C 232.64844 70.77734 232.98438 71.01172 233.32813 71.28516 L 233.33594 71.28906 C 233.38672 71.33203 233.46094 71.34766 233.52735 71.32031 C 233.6289 71.28125 233.67969 71.16797 233.64063 71.06641 C 233.46485 70.60547 233.14453 70.21094 232.76563 69.89453 C 232.38672 69.56641 231.9336 69.33984 231.46485 69.18359 Z M 244.77735 69.859378 L 244.78516 69.859378 C 245.22657 69.83594 245.64063 69.83594 246.04688 69.88281 C 246.44922 69.9375 246.84375 70.01172 247.22657 70.13672 C 247.60938 70.25391 247.97266 70.41797 248.32813 70.60547 C 248.6875 70.796878 249.01563 71.03516 249.35547 71.30859 L 249.36328 71.3125 C 249.42578 71.36328 249.51172 71.37891 249.59375 71.34766 C 249.71485 71.30078 249.77344 71.16406 249.72657 71.046878 C 249.54297 70.58594 249.21485 70.19141 248.83203 69.875 C 248.44922 69.55469 247.99219 69.328128 247.51953 69.18359 C 247.03907 69.046878 246.53907 68.98047 246.04297 69.03906 C 245.55078 69.08984 245.0664 69.22656 244.66016 69.5 C 244.60547 69.53516 244.5664 69.60156 244.57032 69.67578 C 244.57813 69.78125 244.67188 69.86719 244.77735 69.859378 Z M 230.65235 71.765628 C 229.44922 72.23047 229.53516 73.84766 230.54688 74.46875 C 230.86719 74.66406 231.28125 74.76172 231.625 74.60547 C 231.96094 74.45703 232.16016 74.109378 232.28125 73.76172 C 232.65625 72.66797 231.96094 71.26172 230.65235 71.765628 Z M 247.32032 72.10156 C 246.11719 72.5625 246.20313 74.17969 247.21485 74.80078 C 247.53516 74.99609 247.94532 75.09375 248.28907 74.94141 C 248.6289 74.78906 248.82813 74.44141 248.94532 74.09375 C 249.32032 73.00391 248.6289 71.59766 247.32032 72.10156 Z M 264.10548 435.5586 C 263.57423 437.34376 263.30079 439.39064 263.375 441.76173 L 297.9297 441.76173 L 298.8125 440.2578 C 299.5039 439.08204 300.76564 438.35939 302.1289 438.35939 L 303.52735 441.76173 L 312.32814 441.76173 L 311.71485 435.5586 L 264.10548 435.5586 Z M 417.84767 435.5586 L 383.8711 435.5586 C 383.48829 437.34376 383.30079 439.39064 383.3711 441.76173 L 408.8086 441.76173 L 409.6914 440.2578 C 410.3828 439.08204 411.64454 438.35939 411.65626 438.35939 L 411.95704 441.76173 L 418.46485 441.76173 L 417.84767 435.5586 Z M 188.60547 247.0664 C 188.60547 242.32813 184.7539 238.47657 180.01953 238.47657 C 175.28125 238.47657 171.42969 242.32813 171.42969 247.0664 C 171.42969 251.80469 175.28125 255.65625 180.01953 255.65625 C 184.7539 255.65625 188.60547 251.80469 188.60547 247.0664 Z M 180.01953 256.65626 C 174.73047 256.65626 170.42969 252.35547 170.42969 247.0664 C 170.42969 241.77735 174.73047 237.47657 180.01953 237.47657 C 185.30469 237.47657 189.60547 241.77735 189.60547 247.0664 C 189.60547 252.35547 185.30469 256.65626 180.01953 256.65626 Z M 200.91016 247.0664 C 200.91016 252.21485 199.04297 256.91798 195.95703 260.5586 L 186.1289 260.5586 C 191.26172 258.23048 194.83985 253.07032 194.83985 247.0664 C 194.83985 238.8789 188.20313 232.24219 180.01953 232.24219 C 171.83203 232.24219 165.19532 238.8789 165.19532 247.0664 C 165.19532 253.07032 168.77344 258.23048 173.90625 260.5586 L 164.07813 260.5586 C 160.99219 256.91798 159.125 252.21485 159.125 247.0664 C 159.125 235.52735 168.47657 226.17188 180.01953 226.17188 C 191.5586 226.17188 200.91016 235.52735 200.91016 247.0664 " fill="#30526a"/>
</g>
</g>
</svg>
